<svg version="1.0" preserveAspectRatio="xMidYMid" id="svg1" xmlns="http://www.w3.org/2000/svg" xmlns:svg="http://www.w3.org/2000/svg" viewBox="166.25 191.25 16.02 16.03">
  <defs id="defs1"/>
  <metadata id="metadata1">
Created by potrace 1.16, written by Peter Selinger 2001-2019
</metadata>
  <path id="path3" style="fill:#007cfd;fill-opacity:1;stroke:none;stroke-width:0.0294945" d="m 174.3206,191.27851 a 4.8376737,5.1949619 0 0 0 -4.83763,5.19498 4.8376737,5.1949619 0 0 0 0.0436,0.69622 4.8376737,5.1949619 0 0 0 -3.26797,4.91389 4.8376737,5.1949619 0 0 0 4.83763,5.19491 4.8376737,5.1949619 0 0 0 3.16234,-1.26366 4.8376737,5.1949619 0 0 0 3.16234,1.26366 4.8376737,5.1949619 0 0 0 4.83769,-5.19491 4.8376737,5.1949619 0 0 0 -3.14989,-4.86859 4.8376737,5.1949619 0 0 0 0.0495,-0.74152 4.8376737,5.1949619 0 0 0 -4.83769,-5.19498 z m -0.0207,1.18658 a 3.7805312,3.9426231 0 0 1 3.78055,3.94266 3.7805312,3.9426231 0 0 1 -0.0336,0.52451 4.8376737,5.1949619 0 0 0 -0.62595,-0.0436 4.8376737,5.1949619 0 0 0 -3.16228,1.2636 4.8376737,5.1949619 0 0 0 -3.1624,-1.2636 4.8376737,5.1949619 0 0 0 -0.54455,0.033 3.7805312,3.9426231 0 0 1 -0.0323,-0.51387 3.7805312,3.9426231 0 0 1 3.7805,-3.94266 z m -3.22435,5.61011 a 3.7805312,3.9426231 0 0 1 2.44489,0.93542 4.8376737,5.1949619 0 0 0 -0.56739,1.08099 3.7805312,3.9426231 0 0 1 -2.07644,-2.01096 3.7805312,3.9426231 0 0 1 0.19894,-0.005 z m 6.32468,0 a 3.7805312,3.9426231 0 0 1 0.31914,0.0141 3.7805312,3.9426231 0 0 1 -2.1446,2.03012 4.8376737,5.1949619 0 0 0 -0.59357,-1.13142 3.7805312,3.9426231 0 0 1 2.41903,-0.9128 z m -7.60547,0.23317 a 4.8376737,5.1949619 0 0 0 2.83806,3.03357 4.8376737,5.1949619 0 0 0 -0.0495,0.74166 4.8376737,5.1949619 0 0 0 0.88146,2.98975 3.7805312,3.9426231 0 0 1 -2.38918,0.8871 3.7805312,3.9426231 0 0 1 -3.78049,-3.94259 3.7805312,3.9426231 0 0 1 2.4997,-3.70949 z m 9.031,0.0579 a 3.7805312,3.9426231 0 0 1 2.35503,3.65163 3.7805312,3.9426231 0 0 1 -3.78056,3.94259 3.7805312,3.9426231 0 0 1 -2.36258,-0.86474 4.8376737,5.1949619 0 0 0 0.89626,-3.01211 4.8376737,5.1949619 0 0 0 -0.0436,-0.69629 4.8376737,5.1949619 0 0 0 2.93548,-3.02108 z m -4.58781,1.49106 a 3.7805312,3.9426231 0 0 1 0.26095,0.4876 3.7805312,3.9426231 0 0 1 -0.199,0.005 3.7805312,3.9426231 0 0 1 -0.31902,-0.0141 3.7805312,3.9426231 0 0 1 0.25707,-0.47895 z m -0.59857,1.75934 a 4.8376737,5.1949619 0 0 0 0.68118,0.0518 4.8376737,5.1949619 0 0 0 0.51802,-0.0299 3.7805312,3.9426231 0 0 1 0.0175,0.37932 3.7805312,3.9426231 0 0 1 -0.61822,2.1605 3.7805312,3.9426231 0 0 1 -0.61815,-2.1605 3.7805312,3.9426231 0 0 1 0.0196,-0.40123 z"/>
</svg>