<?xml version="1.0" encoding="UTF-8" standalone="no"?>
<svg
   version="1.0"
   width="460.000000pt"
   height="498.000000pt"
   viewBox="0 0 460.000000 498.000000"
   preserveAspectRatio="xMidYMid meet"
   id="svg1"
   sodipodi:docname="icon.svg"
   inkscape:version="1.4.2 (ebf0e94, 2025-05-08)"
   xmlns:inkscape="http://www.inkscape.org/namespaces/inkscape"
   xmlns:sodipodi="http://sodipodi.sourceforge.net/DTD/sodipodi-0.dtd"
   xmlns="http://www.w3.org/2000/svg"
   xmlns:svg="http://www.w3.org/2000/svg">
  <defs
     id="defs1" />
  <sodipodi:namedview
     id="namedview1"
     pagecolor="#ffffff"
     bordercolor="#000000"
     borderopacity="0.25"
     inkscape:showpageshadow="2"
     inkscape:pageopacity="0.0"
     inkscape:pagecheckerboard="0"
     inkscape:deskcolor="#d1d1d1"
     inkscape:document-units="pt"
     inkscape:zoom="0.74849398"
     inkscape:cx="472.28169"
     inkscape:cy="357.3843"
     inkscape:window-width="1366"
     inkscape:window-height="699"
     inkscape:window-x="0"
     inkscape:window-y="0"
     inkscape:window-maximized="1"
     inkscape:current-layer="svg1" />
  <metadata
     id="metadata1">
Created by potrace 1.16, written by Peter Selinger 2001-2019
</metadata>
  <path
     id="path3"
     style="fill:#0000ff;stroke:none;stroke-width:0.694319"
     d="M 231.4643,59.091391 A 117.26325,118.76627 0 0 0 114.20209,177.85801 117.26325,118.76627 0 0 0 115.25971,193.775 117.26325,118.76627 0 0 0 36.045352,306.11532 117.26325,118.76627 0 0 0 153.30756,424.88047 117.26325,118.76627 0 0 0 229.96137,395.99082 117.26325,118.76627 0 0 0 306.61518,424.88047 117.26325,118.76627 0 0 0 423.87886,306.11532 117.26325,118.76627 0 0 0 347.52681,194.81064 117.26325,118.76627 0 0 0 348.72798,177.85801 117.26325,118.76627 0 0 0 231.4643,59.091391 Z m -0.50098,27.127441 a 91.638542,90.135529 0 0 1 91.63916,90.136248 91.638542,90.135529 0 0 1 -0.81445,11.99121 117.26325,118.76627 0 0 0 -15.17285,-0.99756 117.26325,118.76627 0 0 0 -76.65235,28.88817 117.26325,118.76627 0 0 0 -76.65527,-28.88817 117.26325,118.76627 0 0 0 -13.19971,0.75439 91.638542,90.135529 0 0 1 -0.78222,-11.74804 91.638542,90.135529 0 0 1 91.63769,-90.136248 z M 152.80658,214.47616 a 91.638542,90.135529 0 0 1 59.26319,21.38526 117.26325,118.76627 0 0 0 -13.75342,24.71337 91.638542,90.135529 0 0 1 -50.33203,-45.97412 91.638542,90.135529 0 0 1 4.82226,-0.12451 z m 153.30762,0 a 91.638542,90.135529 0 0 1 7.73584,0.32227 91.638542,90.135529 0 0 1 -51.98437,46.41211 117.26325,118.76627 0 0 0 -14.3877,-25.86621 91.638542,90.135529 0 0 1 58.63623,-20.86817 z m -184.3535,5.33057 a 117.26325,118.76627 0 0 0 68.79344,69.35303 117.26325,118.76627 0 0 0 -1.20117,16.95556 117.26325,118.76627 0 0 0 21.36621,68.35108 91.638542,90.135529 0 0 1 -57.9126,20.28076 91.638542,90.135529 0 0 1 -91.637698,-90.13477 91.638542,90.135529 0 0 1 60.591818,-84.80566 z m 218.90771,1.32275 a 91.638542,90.135529 0 0 1 57.08496,83.48291 91.638542,90.135529 0 0 1 -91.63917,90.13477 91.638542,90.135529 0 0 1 -57.26807,-19.76953 117.26325,118.76627 0 0 0 21.7251,-68.86231 117.26325,118.76627 0 0 0 -1.05761,-15.91846 117.26325,118.76627 0 0 0 71.15479,-69.06738 z m -111.20655,34.08838 a 91.638542,90.135529 0 0 1 6.32519,11.14746 91.638542,90.135529 0 0 1 -4.82373,0.12451 91.638542,90.135529 0 0 1 -7.73291,-0.32226 91.638542,90.135529 0 0 1 6.23145,-10.94971 z m -14.50928,40.22168 a 117.26325,118.76627 0 0 0 16.51172,1.18359 117.26325,118.76627 0 0 0 12.55664,-0.68261 91.638542,90.135529 0 0 1 0.4248,8.67187 91.638542,90.135529 0 0 1 -14.98535,49.39307 91.638542,90.135529 0 0 1 -14.98388,-49.39307 91.638542,90.135529 0 0 1 0.47607,-9.17285 z" />
</svg>
