<?xml version="1.0" encoding="UTF-8" standalone="no"?>
<svg
   version="1.0"
   width="460.000000pt"
   height="498.000000pt"
   viewBox="0 0 460.000000 498.000000"
   preserveAspectRatio="xMidYMid meet"
   id="svg1"
   sodipodi:docname="icon.svg"
   inkscape:version="1.4.2 (ebf0e94, 2025-05-08)"
   inkscape:export-filename="icon.svg"
   inkscape:export-xdpi="96"
   inkscape:export-ydpi="96"
   xmlns:inkscape="http://www.inkscape.org/namespaces/inkscape"
   xmlns:sodipodi="http://sodipodi.sourceforge.net/DTD/sodipodi-0.dtd"
   xmlns="http://www.w3.org/2000/svg"
   xmlns:svg="http://www.w3.org/2000/svg">
  <defs
     id="defs1" />
  <sodipodi:namedview
     id="namedview1"
     pagecolor="#ffffff"
     bordercolor="#000000"
     borderopacity="0.25"
     inkscape:showpageshadow="2"
     inkscape:pageopacity="0.0"
     inkscape:pagecheckerboard="0"
     inkscape:deskcolor="#d1d1d1"
     inkscape:document-units="pt"
     inkscape:zoom="0.74849398"
     inkscape:cx="472.28169"
     inkscape:cy="167.67002"
     inkscape:window-width="1366"
     inkscape:window-height="699"
     inkscape:window-x="0"
     inkscape:window-y="0"
     inkscape:window-maximized="1"
     inkscape:current-layer="svg1"
     showguides="false" />
  <metadata
     id="metadata1">
Created by potrace 1.16, written by Peter Selinger 2001-2019
</metadata>
  <path
     id="path3"
     style="fill:#007cfd;fill-opacity:1;stroke:none;stroke-width:0.217483"
     d="m 202.72343,152.27851 a 36.282553,37.66086 0 0 0 -36.28223,37.66097 36.282553,37.66086 0 0 0 0.32723,5.04729 36.282553,37.66086 0 0 0 -24.5098,35.62318 36.282553,37.66086 0 0 0 36.28223,37.66051 36.282553,37.66086 0 0 0 23.71754,-9.16093 36.282553,37.66086 0 0 0 23.71755,9.16093 36.282553,37.66086 0 0 0 36.28268,-37.66051 36.282553,37.66086 0 0 0 -23.62417,-35.29478 36.282553,37.66086 0 0 0 0.37165,-5.37569 36.282553,37.66086 0 0 0 -36.28268,-37.66097 z m -0.15501,8.60214 a 28.353984,28.582034 0 0 1 28.35417,28.58225 28.353984,28.582034 0 0 1 -0.252,3.80242 36.282553,37.66086 0 0 0 -4.69464,-0.31632 36.282553,37.66086 0 0 0 -23.71709,9.16045 36.282553,37.66086 0 0 0 -23.718,-9.16045 36.282553,37.66086 0 0 0 -4.08413,0.23921 28.353984,28.582034 0 0 1 -0.24203,-3.72531 28.353984,28.582034 0 0 1 28.35372,-28.58225 z m -24.18257,40.67047 a 28.353984,28.582034 0 0 1 18.33669,6.78128 36.282553,37.66086 0 0 0 -4.25546,7.83662 28.353984,28.582034 0 0 1 -15.57329,-14.57842 28.353984,28.582034 0 0 1 1.49206,-0.0394 z m 47.43509,0 a 28.353984,28.582034 0 0 1 2.39355,0.1022 28.353984,28.582034 0 0 1 -16.08454,14.71731 36.282553,37.66086 0 0 0 -4.45171,-8.2022 28.353984,28.582034 0 0 1 18.1427,-6.61731 z m -57.04103,1.69033 a 36.282553,37.66086 0 0 0 21.28546,21.99189 36.282553,37.66086 0 0 0 -0.37166,5.37661 36.282553,37.66086 0 0 0 6.61095,21.67418 28.353984,28.582034 0 0 1 -17.91881,6.43104 28.353984,28.582034 0 0 1 -28.35372,-28.58179 28.353984,28.582034 0 0 1 18.74778,-26.89193 z m 67.73248,0.41945 a 28.353984,28.582034 0 0 1 17.66272,26.47248 28.353984,28.582034 0 0 1 -28.35417,28.58179 28.353984,28.582034 0 0 1 -17.71938,-6.26893 36.282553,37.66086 0 0 0 6.72199,-21.83629 36.282553,37.66086 0 0 0 -0.32724,-5.04774 36.282553,37.66086 0 0 0 22.01608,-21.90131 z m -34.40854,10.80944 a 28.353984,28.582034 0 0 1 1.95708,3.53486 28.353984,28.582034 0 0 1 -1.49251,0.0394 28.353984,28.582034 0 0 1 -2.39265,-0.10219 28.353984,28.582034 0 0 1 1.92808,-3.47216 z m -4.48933,12.75432 a 36.282553,37.66086 0 0 0 5.10891,0.37532 36.282553,37.66086 0 0 0 3.88516,-0.21646 28.353984,28.582034 0 0 1 0.13144,2.74986 28.353984,28.582034 0 0 1 -4.63664,15.66257 28.353984,28.582034 0 0 1 -4.63617,-15.66257 28.353984,28.582034 0 0 1 0.1473,-2.90872 z" />
</svg>
